<svg xmlns="http://www.w3.org/2000/svg" version="1.1" xmlns:xlink="http://www.w3.org/1999/xlink" xmlns:svgjs="http://svgjs.dev/svgjs" width="2000" height="2000" viewBox="0 0 2000 2000"><g transform="matrix(1,0,0,1,-0.28443113772425477,-0.28443113772459583)"><svg viewBox="0 0 334 334" data-background-color="#ffffff" preserveAspectRatio="xMidYMid meet" height="2000" width="2000" xmlns="http://www.w3.org/2000/svg" xmlns:xlink="http://www.w3.org/1999/xlink"><g id="tight-bounds" transform="matrix(1,0,0,1,0.04749999999998522,0.04750000000001364)"><svg viewBox="0 0 333.90454557049503 333.90454557049503" height="333.90454557049503" width="333.90454557049503"><g><svg></svg></g><g><svg viewBox="0 0 333.90454557049503 333.90454557049503" height="333.90454557049503" width="333.90454557049503"><g><path d="M0 166.952c0-92.205 74.747-166.952 166.952-166.952 92.205 0 166.952 74.747 166.953 166.952 0 92.205-74.747 166.952-166.953 166.953-92.205 0-166.952-74.747-166.952-166.953zM166.952 316.63c82.665 0 149.677-67.013 149.678-149.678 0-82.665-67.013-149.677-149.678-149.677-82.665 0-149.677 67.013-149.677 149.677 0 82.665 67.013 149.677 149.677 149.678z" data-fill-palette-color="tertiary" fill="#ca3433" stroke="transparent"></path><ellipse rx="160.27418187383762" ry="160.27418187383762" cx="166.95227278524752" cy="166.95227278524752" fill="#ca3433" stroke="transparent" stroke-width="0" fill-opacity="1" data-fill-palette-color="tertiary"></ellipse></g><g transform="matrix(1,0,0,1,128.06446892710284,71.17305217166896)"><svg viewBox="0 0 77.77560771628936 191.55844122715712" height="191.55844122715712" width="77.77560771628936"><g><svg viewBox="0 0 77.77560771628936 191.55844122715712" height="191.55844122715712" width="77.77560771628936"><g><svg viewBox="0 0 77.77560771628936 191.55844122715712" height="191.55844122715712" width="77.77560771628936"><g><svg viewBox="0 0 77.77560771628936 191.55844122715712" height="191.55844122715712" width="77.77560771628936"><g><svg viewBox="0 0 77.77560771628936 191.55844122715712" height="191.55844122715712" width="77.77560771628936"><g><svg viewBox="0 0 77.77560771628936 191.55844122715712" height="191.55844122715712" width="77.77560771628936"><g transform="matrix(1,0,0,1,0,0)"><svg width="77.77560771628936" viewBox="1 -32.5 13.5 33.25" height="191.55844122715712" data-palette-color="#ffffff"><path d="M4.5-29.5L4.5-32.5 14.5-32.5 14.5-5.75Q14.5-2.55 12.7-0.9 10.9 0.75 7.7 0.75 4.5 0.75 2.75-0.9 1-2.55 1-5.75L1-5.75 1-9 4.5-9 4.5-5.55Q4.5-2.25 7.7-2.25L7.7-2.25Q11-2.25 11-5.55L11-5.55 11-29.5 4.5-29.5Z" opacity="1" transform="matrix(1,0,0,1,0,0)" fill="#ffffff" class="undefined-text-0" data-fill-palette-color="quaternary" id="text-0"></path></svg></g></svg></g></svg></g></svg></g><g></g></svg></g></svg></g></svg></g></svg></g><defs></defs></svg><rect width="333.90454557049503" height="333.90454557049503" fill="none" stroke="none" visibility="hidden"></rect></g></svg></g></svg>